<?xml version="1.0" encoding="iso-8859-1"?>
<!-- Generator: Adobe Illustrator 17.1.0, SVG Export Plug-In . SVG Version: 6.00 Build 0)  -->
<!DOCTYPE svg PUBLIC "-//W3C//DTD SVG 1.1//EN" "http://www.w3.org/Graphics/SVG/1.1/DTD/svg11.dtd">
<svg version="1.1" id="Capa_1" xmlns="http://www.w3.org/2000/svg" xmlns:xlink="http://www.w3.org/1999/xlink" x="0px" y="0px"
	 viewBox="0 0 512 512" style="enable-background:new 0 0 512 512;" xml:space="preserve">
<g>
	<path d="M437.022,74.984C388.67,26.63,324.381,0,256,0C187.624,0,123.338,26.63,74.984,74.984S0,187.624,0,256
		c0,68.388,26.63,132.678,74.984,181.028C123.335,485.375,187.621,512,256,512c68.385,0,132.673-26.625,181.021-74.972
		C485.372,388.679,512,324.389,512,256C512,187.623,485.372,123.336,437.022,74.984z M425.708,425.714
		C380.381,471.039,320.111,496,256,496c-64.106,0-124.374-24.961-169.703-70.286C40.965,380.386,16,320.113,16,256
		c0-64.102,24.965-124.37,70.297-169.703C131.63,40.965,191.898,16,256,16c64.108,0,124.378,24.965,169.708,70.297
		C471.037,131.628,496,191.896,496,256C496,320.115,471.037,380.387,425.708,425.714z"/>
	<path d="M430.038,114.969c-2.784-3.432-7.821-3.957-11.253-1.172c-3.431,2.784-3.956,7.822-1.172,11.252
		C447.526,161.919,464,208.426,464,256c0,55.567-21.635,107.803-60.919,147.085C363.797,442.367,311.563,464,256,464
		c-51.26,0-100.505-18.807-138.663-52.956c-3.292-2.946-8.35-2.665-11.296,0.626c-2.946,3.292-2.666,8.35,0.626,11.296
		C147.763,459.745,200.797,480,256,480c59.837,0,116.089-23.297,158.394-65.601C456.701,372.095,480,315.84,480,256
		C480,204.767,462.256,154.681,430.038,114.969z"/>
	<path d="M48,256c0-114.691,93.309-208,208-208c51.26,0,100.504,18.808,138.662,52.959c3.293,2.948,8.351,2.667,11.296-0.625
		c2.947-3.292,2.667-8.35-0.625-11.296C364.237,52.256,311.203,32,256,32c-59.829,0-116.08,23.301-158.389,65.611
		C55.301,139.921,32,196.171,32,256c0,51.239,17.744,101.328,49.963,141.038c1.581,1.949,3.889,2.96,6.217,2.96
		c1.771,0,3.553-0.585,5.036-1.788c3.431-2.784,3.956-7.822,1.172-11.253C64.474,350.088,48,303.58,48,256z"/>
	<path d="M165.501,246.809h34.409c8.525,0,15.713-1.755,21.34-5.203c4.761-2.893,10.437-8.907,10.437-21.131
		c0-14.555-8.565-20.276-13.67-22.392c-0.174-0.072-0.352-0.139-0.531-0.198c-5.894-1.966-13.199-2.962-21.714-2.962h-30.271
		c-4.418,0-8,3.582-8,8v35.886C157.501,243.227,161.083,246.809,165.501,246.809z M173.501,210.923h22.271
		c6.649,0,12.159,0.69,16.383,2.052c1.364,0.587,3.532,1.841,3.532,7.5c0,5.789-1.994,7.001-2.77,7.472
		c-3.1,1.898-7.476,2.861-13.008,2.861h-26.409V210.923z"/>
	<path d="M220.032,261.225c-4.91-2.273-11.302-3.42-19.625-3.506h-34.906c-4.418,0-8,3.582-8,8v43.345c0,4.418,3.582,8,8,8h34.369
		c8.405,0,14.941-1.2,20.025-3.691c6.894-3.431,15.11-10.983,15.11-27.477C235.005,274.376,229.67,265.607,220.032,261.225z
		 M212.811,299.026c-1.897,0.929-5.682,2.037-12.941,2.037h-26.369v-27.345l26.823,0c7.28,0.076,11.081,1.144,13.036,2.049
		c2.792,1.269,5.645,3.465,5.645,10.128C219.005,294.801,215.67,297.603,212.811,299.026z"/>
	<path d="M354.305,236.65c-6.212-4.572-13.88-6.891-22.792-6.891c-9.745,0-17.626,2.568-23.388,7.601
		c-5.728,4.941-9.355,11.653-10.782,19.951c-0.4,2.325,0.247,4.707,1.767,6.511s3.758,2.845,6.117,2.845H357.7
		c2.236,0,4.371-0.936,5.885-2.582c1.515-1.645,2.272-3.849,2.087-6.078C364.91,248.785,361.076,241.593,354.305,236.65z
		 M317.35,250.667c0.395-0.43,0.815-0.837,1.262-1.223c2.799-2.445,7.139-3.684,12.9-3.684c5.502,0,9.855,1.235,13.333,3.795
		c0.418,0.305,0.87,0.667,1.324,1.112H317.35z"/>
	<path d="M364.008,197.575c4.418,0,8-3.582,8-8s-3.582-8-8-8h-65.489c-4.418,0-8,3.582-8,8s3.582,8,8,8H364.008z"/>
	<path d="M397.302,282.69c0.146-10.384-0.222-18.601-1.101-24.475c-1.615-10.306-5.182-19.525-10.552-27.328
		c-6.096-9.071-13.993-15.826-23.474-20.079c-9.102-4.076-19.418-6.143-30.663-6.143c-19.195,0-35.122,6.226-47.344,18.51
		c-10.977,11.052-17.057,26.398-18.149,45.654c-1.15-3.105-2.595-6.028-4.348-8.749c-2.686-4.197-6.071-7.818-10.125-10.841
		c1.172-1.083,2.232-2.199,3.178-3.346c6.211-7.473,9.361-17.246,9.361-29.047c0-11.331-3.012-21.257-8.997-29.563
		c-9.764-13.291-26.056-20.217-48.423-20.586c-0.044,0-0.088-0.001-0.132-0.001H128c-4.418,0-8,3.582-8,8v162.61
		c0,4.418,3.582,8,8,8h73.231c8.73,0,16.999-0.796,24.577-2.366c8.217-1.702,15.477-4.942,21.579-9.63
		c5.333-4.009,9.861-9.03,13.457-14.924c3.854-6.1,6.399-12.815,7.61-20.052c3.173,12.619,9.212,22.609,18.106,29.81
		c13.288,10.682,28.779,16.099,46.045,16.099c21.006,0,37.726-6.588,49.631-19.514c5.526-5.863,9.423-11.942,11.583-18.068
		c0.863-2.448,0.484-5.163-1.015-7.282c-1.5-2.119-3.934-3.378-6.53-3.378h-33.8c-2.25,0-4.397,0.948-5.913,2.611l-0.493,0.548
		c-0.264,0.296-0.625,0.701-0.807,0.858c-2.858,2.362-6.721,3.51-11.807,3.51c-5.089,0-9.178-1.025-12.499-3.134
		c-0.039-0.024-0.077-0.049-0.117-0.073c-3.407-2.083-5.752-5.3-7.078-9.743h75.542C393.677,290.578,397.241,287.064,397.302,282.69
		z M247.289,309.884c-0.026,0.041-0.052,0.083-0.078,0.125c-2.548,4.188-5.732,7.731-9.465,10.531
		c-0.027,0.02-0.053,0.041-0.08,0.061c-4.177,3.216-9.259,5.461-15.104,6.672c-6.512,1.349-13.689,2.033-21.331,2.033H136v-146.61
		h70.466c17.309,0.296,28.996,4.896,35.684,14c3.994,5.543,5.935,12.135,5.935,20.15c0,8.077-1.853,14.233-5.686,18.845
		c-2.084,2.528-5.396,4.956-9.843,7.217c-2.837,1.442-4.55,4.43-4.361,7.607c0.189,3.178,2.244,5.94,5.233,7.036
		c6.708,2.459,11.54,6.11,14.771,11.162c0.005,0.008,0.01,0.017,0.016,0.025c3.405,5.281,5.061,11.653,5.061,19.482
		C253.275,296.441,251.317,303.528,247.289,309.884z M304.504,274.578c-2.177,0-4.26,0.887-5.769,2.458
		c-1.508,1.57-2.312,3.687-2.225,5.862c0.579,14.463,5.937,24.905,15.924,31.038c5.869,3.71,12.94,5.592,21.02,5.592
		c8.834,0,16.235-2.414,21.938-7.126c0.164-0.133,0.322-0.267,0.475-0.401h16.306c-0.521,0.604-1.069,1.211-1.643,1.82
		c-8.938,9.704-21.344,14.421-37.925,14.421c-13.718,0-25.5-4.111-35.999-12.551c-9.809-7.941-14.783-21.549-14.783-40.444
		c0-18.172,4.48-31.517,13.692-40.791c9.232-9.28,21.007-13.791,35.997-13.791c8.976,0,17.092,1.597,24.118,4.744
		c6.8,3.05,12.275,7.762,16.789,14.476c4.107,5.97,6.716,12.776,7.966,20.753c0.522,3.493,0.831,8.163,0.92,13.94H304.504z"/>
</g>
<g>
</g>
<g>
</g>
<g>
</g>
<g>
</g>
<g>
</g>
<g>
</g>
<g>
</g>
<g>
</g>
<g>
</g>
<g>
</g>
<g>
</g>
<g>
</g>
<g>
</g>
<g>
</g>
<g>
</g>
</svg>
