<?xml version="1.0" encoding="iso-8859-1"?>
<!-- Generator: Adobe Illustrator 17.1.0, SVG Export Plug-In . SVG Version: 6.00 Build 0)  -->
<!DOCTYPE svg PUBLIC "-//W3C//DTD SVG 1.1//EN" "http://www.w3.org/Graphics/SVG/1.1/DTD/svg11.dtd">
<svg version="1.1" id="Capa_1" xmlns="http://www.w3.org/2000/svg" xmlns:xlink="http://www.w3.org/1999/xlink" x="0px" y="0px"
	 viewBox="0 0 512 512" style="enable-background:new 0 0 512 512;" xml:space="preserve">
<g>
	<path d="M437.022,74.984C388.67,26.63,324.381,0,256,0C187.624,0,123.338,26.63,74.984,74.984S0,187.624,0,256
		c0,68.388,26.63,132.678,74.984,181.028C123.335,485.375,187.621,512,256,512c68.385,0,132.673-26.625,181.021-74.972
		C485.372,388.679,512,324.389,512,256C512,187.623,485.372,123.336,437.022,74.984z M425.708,425.714
		C380.381,471.039,320.111,496,256,496c-64.106,0-124.374-24.961-169.703-70.286C40.965,380.386,16,320.113,16,256
		c0-64.102,24.965-124.37,70.297-169.703C131.63,40.965,191.898,16,256,16c64.108,0,124.378,24.965,169.708,70.297
		C471.037,131.628,496,191.896,496,256C496,320.115,471.037,380.387,425.708,425.714z"/>
	<path d="M430.038,114.969c-2.783-3.432-7.821-3.957-11.253-1.172c-3.431,2.784-3.956,7.822-1.172,11.252
		C447.526,161.919,464,208.426,464,256c0,55.567-21.635,107.803-60.919,147.085C363.797,442.367,311.563,464,256,464
		c-51.26,0-100.505-18.807-138.663-52.956c-3.292-2.946-8.35-2.665-11.296,0.626c-2.946,3.292-2.666,8.35,0.626,11.296
		C147.763,459.745,200.797,480,256,480c59.837,0,116.089-23.297,158.394-65.601C456.701,372.095,480,315.84,480,256
		C480,204.767,462.256,154.681,430.038,114.969z"/>
	<path d="M48,256c0-114.691,93.309-208,208-208c51.26,0,100.504,18.808,138.662,52.959c3.293,2.948,8.35,2.667,11.296-0.625
		c2.947-3.292,2.667-8.35-0.625-11.296C364.237,52.256,311.203,32,256,32c-59.829,0-116.08,23.301-158.389,65.611
		C55.301,139.921,32,196.171,32,256c0,51.239,17.744,101.328,49.963,141.038c1.581,1.949,3.889,2.96,6.217,2.96
		c1.771,0,3.553-0.585,5.036-1.788c3.431-2.784,3.956-7.822,1.172-11.253C64.474,350.088,48,303.58,48,256z"/>
	<path d="M209.927,136.582c-0.268,0.086-0.531,0.186-0.791,0.301C161.67,155.623,128,201.953,128,256c0,70.58,57.42,128,128,128
		s128-57.42,128-128s-57.42-128-128-128C239.765,128,224.23,131.045,209.927,136.582z M329.406,171.479
		c-0.019,0.028-0.042,0.053-0.061,0.082c-14.464,21.682-36.655,36.11-60.839,45.683c-1.448-2.758-2.879-5.434-4.281-8.002
		c-15.053-27.576-29.78-49.227-38.54-61.069C235.33,145.456,245.498,144,256,144C284.056,144,309.734,154.371,329.406,171.479z
		 M209.952,153.908c6.959,9.093,23.375,32.056,40.478,63.455c0.924,1.697,1.863,3.45,2.81,5.233
		c-43.82,13.544-90.157,13.417-107.33,12.788C152.705,199.014,177.13,168.771,209.952,153.908z M144,256
		c0-1.558,0.041-3.107,0.104-4.65c3.632,0.161,8.663,0.311,14.807,0.311c14.905,0,36.296-0.885,59.775-4.657
		c15.02-2.413,29.047-5.731,41.972-9.904c3.056,6.201,6.141,12.767,9.183,19.649c-31.713,9.54-67.171,30.874-95.311,76.021
		C155.613,312.706,144,285.685,144,256z M186.537,343.793c22.714-37.666,52.739-61.893,89.538-72.304
		c10.626,26.327,19.965,56.255,24.418,87.284C286.847,364.704,271.802,368,256,368C229.782,368,205.641,358.941,186.537,343.793z
		 M315.469,350.864c-4.773-29.453-13.578-57.733-23.582-82.913c3.775-0.639,7.605-1.162,11.507-1.537
		c28.523-2.736,52.723,2.696,63.438,5.727C362.029,305.273,342.67,333.751,315.469,350.864z M367.998,255.848
		c-13.003-3.418-37.054-8.042-65.462-5.424c-5.374,0.495-11.046,1.275-16.933,2.425c-3.239-7.438-6.538-14.535-9.809-21.231
		c3.617-1.465,7.134-3.002,10.536-4.619c23.445-11.144,41.769-25.941,54.543-43.997C357.74,202.586,367.961,228.045,367.998,255.848
		z"/>
</g>
<g>
</g>
<g>
</g>
<g>
</g>
<g>
</g>
<g>
</g>
<g>
</g>
<g>
</g>
<g>
</g>
<g>
</g>
<g>
</g>
<g>
</g>
<g>
</g>
<g>
</g>
<g>
</g>
<g>
</g>
</svg>
