<?xml version="1.0" encoding="iso-8859-1"?>
<!-- Generator: Adobe Illustrator 17.1.0, SVG Export Plug-In . SVG Version: 6.00 Build 0)  -->
<!DOCTYPE svg PUBLIC "-//W3C//DTD SVG 1.1//EN" "http://www.w3.org/Graphics/SVG/1.1/DTD/svg11.dtd">
<svg version="1.1" id="Capa_1" xmlns="http://www.w3.org/2000/svg" xmlns:xlink="http://www.w3.org/1999/xlink" x="0px" y="0px"
	 viewBox="0 0 512 512" style="enable-background:new 0 0 512 512;" xml:space="preserve">
<g>
	<path d="M437.022,74.984C388.67,26.63,324.381,0,256,0C187.624,0,123.338,26.63,74.984,74.984S0,187.624,0,256
		c0,68.388,26.63,132.678,74.984,181.028C123.335,485.375,187.621,512,256,512c68.385,0,132.673-26.625,181.021-74.972
		C485.372,388.679,512,324.389,512,256C512,187.623,485.372,123.336,437.022,74.984z M425.708,425.714
		C380.381,471.039,320.111,496,256,496c-64.106,0-124.374-24.961-169.703-70.286C40.965,380.386,16,320.113,16,256
		c0-64.102,24.965-124.37,70.297-169.703C131.63,40.965,191.898,16,256,16c64.108,0,124.378,24.965,169.708,70.297
		C471.037,131.628,496,191.896,496,256C496,320.115,471.037,380.387,425.708,425.714z"/>
	<path d="M430.038,114.969c-2.784-3.432-7.821-3.956-11.253-1.172c-3.431,2.784-3.956,7.822-1.172,11.252
		C447.526,161.919,464,208.426,464,256c0,55.567-21.635,107.803-60.919,147.085C363.797,442.367,311.563,464,256,464
		c-51.26,0-100.505-18.807-138.663-52.956c-3.292-2.946-8.35-2.666-11.296,0.626s-2.666,8.35,0.626,11.296
		C147.763,459.745,200.797,480,256,480c59.837,0,116.089-23.297,158.394-65.601C456.701,372.095,480,315.84,480,256
		C480,204.767,462.256,154.681,430.038,114.969z"/>
	<path d="M48,256c0-114.691,93.309-208,208-208c51.26,0,100.504,18.808,138.662,52.959c3.293,2.948,8.351,2.666,11.296-0.625
		c2.947-3.292,2.667-8.35-0.625-11.296C364.237,52.256,311.203,32,256,32c-59.829,0-116.08,23.301-158.389,65.611
		C55.301,139.921,32,196.171,32,256c0,51.239,17.744,101.328,49.963,141.038c1.581,1.949,3.889,2.96,6.217,2.96
		c1.771,0,3.553-0.585,5.036-1.788c3.431-2.784,3.956-7.822,1.172-11.253C64.474,350.088,48,303.58,48,256z"/>
	<path d="M190.165,301.683c-9.963,7.207-15.45,17.038-15.45,27.681s5.487,20.474,15.45,27.681
		c9.182,6.641,21.255,10.299,33.996,10.299s24.814-3.658,33.996-10.299c9.963-7.207,15.451-17.038,15.451-27.681
		s-5.487-20.474-15.451-27.681c-9.182-6.641-21.255-10.299-33.996-10.299S199.346,295.042,190.165,301.683z M257.606,329.364
		c0,11.915-15.316,21.98-33.446,21.98c-18.129,0-33.446-10.065-33.446-21.98s15.316-21.98,33.446-21.98
		C242.29,307.384,257.606,317.45,257.606,329.364z"/>
	<path d="M319.421,139.739c-1.218-3.031-4.157-5.017-7.423-5.017H227.7c-19.621,0-39.336,7.288-54.092,19.995
		c-15.092,12.996-23.748,30.545-23.748,48.147c0,34.097,21.703,59.868,53.707,65.13c0.022,0.511,0.056,1.02,0.1,1.525
		c-17.9,2.344-34.269,9.666-46.85,21.092c-14.078,12.785-22.151,29.579-22.151,46.076c0,32.792,36.719,56.592,87.31,56.592
		c42.855,0,87.183-24.679,87.183-65.978c0-26.438-7.826-40.802-32.233-59.131l-1.465-1.091c-6.519-4.843-9.81-7.736-11.438-9.337
		c0.908-0.99,2.825-2.794,6.866-5.953c16.838-13.146,25.739-29.733,25.739-47.972c0-10.578-2.203-20.519-6.417-29.13l27.325-26.189
		C319.892,146.237,320.639,142.77,319.421,139.739z M274.662,167.425c-2.77,2.655-3.265,6.903-1.18,10.124
		c4.673,7.217,7.143,16.3,7.143,26.268c0,13.13-6.772,25.357-19.588,35.362c-11.025,8.617-13.721,12.595-13.736,20.272
		c-0.002,0.956,0.167,1.905,0.5,2.801c1.297,3.492,4.874,7.833,18.108,17.664l1.432,1.066
		c20.508,15.401,25.816,24.924,25.816,46.318c0,17.891-11.656,29.421-21.435,35.942c-13.373,8.919-31.506,14.035-49.749,14.035
		c-20.771,0-39.49-4.46-52.708-12.559c-8.486-5.199-18.601-14.283-18.601-28.033c0-29.984,32.696-51.069,63.233-51.95
		c2.668-0.077,5.122-1.479,6.542-3.739s1.621-5.079,0.533-7.517c-0.969-2.171-1.439-4.471-1.439-7.031
		c0-1.351,0.129-2.742,0.383-4.134c0.413-2.26-0.166-4.589-1.588-6.393s-3.553-2.909-5.847-3.034
		c-27.885-1.516-46.621-21.62-46.621-50.025c0-12.939,6.629-26.069,18.188-36.023c11.896-10.244,27.806-16.119,43.651-16.119h64.39
		L274.662,167.425z"/>
	<path d="M203.421,163.899c-8.114,4.101-13.623,12.48-15.112,22.99c-1.361,9.603,0.62,20.295,5.578,30.106
		c8.384,16.592,22.903,26.611,36.553,26.611c4.091,0,8.104-0.9,11.85-2.793c0,0,0,0,0,0c16.244-8.209,20.432-31.532,9.535-53.097
		c-4.958-9.811-12.391-17.748-20.93-22.348C221.549,160.333,211.536,159.798,203.421,163.899z M223.306,179.454
		c5.603,3.018,10.793,8.66,14.238,15.478c6.508,12.879,5.354,27.646-2.471,31.6c-7.825,3.955-20.398-3.874-26.907-16.754
		c-3.446-6.818-4.91-14.343-4.017-20.644c0.438-3.088,1.863-8.618,6.488-10.955c1.481-0.749,3.03-1.039,4.543-1.039
		C218.393,177.141,221.439,178.448,223.306,179.454z"/>
	<path d="M359.998,246.722c4.418,0,8-3.582,8-8v-32h32c4.418,0,8-3.582,8-8s-3.582-8-8-8h-32v-32c0-4.418-3.582-8-8-8s-8,3.582-8,8
		v32h-32c-4.418,0-8,3.582-8,8s3.582,8,8,8h32v32C351.998,243.14,355.579,246.722,359.998,246.722z"/>
</g>
<g>
</g>
<g>
</g>
<g>
</g>
<g>
</g>
<g>
</g>
<g>
</g>
<g>
</g>
<g>
</g>
<g>
</g>
<g>
</g>
<g>
</g>
<g>
</g>
<g>
</g>
<g>
</g>
<g>
</g>
</svg>
